<svg width="116" height="24" viewBox="0 0 116 24" xmlns="http://www.w3.org/2000/svg">
    <g fill="none" fill-rule="evenodd">
        <path d="M10.01 22c5.53 0 10.014-4.477 10.014-10.001C20.024 6.477 15.541 2 10.01 2 4.483 2 0 6.477 0 11.999 0 17.523 4.483 22 10.01 22" fill="#C30037"/>
        <path fill="#FEFEFE" d="M9.613 7.612v8.766h2.794v-.784h-1.994V7.612zM6.815 10.004a1.199 1.199 0 1 0 .003-2.396 1.199 1.199 0 0 0-.003 2.396"/>
        <path d="M10.413 3.633a9.36 9.36 0 0 0-.403-.008c-4.619 0-8.38 3.758-8.38 8.372 0 2.235.874 4.339 2.455 5.92a8.332 8.332 0 0 0 5.925 2.451c2.242 0 4.346-.87 5.93-2.451a8.328 8.328 0 0 0 2.453-5.92v-.381h-5.985v.78h5.187v.114a7.606 7.606 0 0 1-7.585 7.076 7.555 7.555 0 0 1-5.37-2.224 7.527 7.527 0 0 1-2.225-5.365c0-2.026.79-3.932 2.226-5.367a7.554 7.554 0 0 1 5.37-2.222c.09 0 .306.002.402.007v-.782z" fill="#FEFEFE"/>
        <path fill="#717171" d="M27.6 5.408h-3.014v13.026h9.253v-2.537h-6.24zM40.468 13.468h2.454v2.278c-.453.173-1.335.345-2.175.345-2.711 0-3.615-1.376-3.615-4.171 0-2.664.861-4.234 3.572-4.234 1.508 0 2.368.473 3.078 1.376l1.873-1.72c-1.14-1.633-3.143-2.127-5.015-2.127-4.218 0-6.435 2.299-6.435 6.684 0 4.363 2.001 6.728 6.414 6.728 2.022 0 4.003-.517 5.079-1.269V11.04h-5.23v2.428zM55.554 16.93c-1.23 0-1.782-.466-1.782-1.327 0-.805.552-1.313 1.782-1.313 1.259 0 1.795.508 1.795 1.313 0 .86-.536 1.327-1.795 1.327m-.015-4.264c-3.095 0-4.057 1.384-4.057 2.965 0 1.624.962 2.951 4.057 2.951 3.167 0 4.142-1.327 4.142-2.95 0-1.582-.975-2.966-4.142-2.966"/>
        <path d="M57.462 6.327H54.83v-.834h-6.362V7.3h4.057v.876c0 1.214-1.216 2.338-4.467 3.798l.792 1.553c4.047-1.717 5.879-2.955 5.975-5.35h2.637v1.171h-2.547v1.85h2.547v1.341h2.12c.128-.636.184-1.384.184-1.976V5.296h-2.304v1.03zM97.402 8.065v-2.71h-9.228v1.848h6.953v1.13c0 .861-.085 2.075-.524 3.077h-7.757v1.85h4.95v5.21h1.979c.141-.65.282-1.681.282-2.529v-2.68h4.863v-1.85h-2.168c.395-.96.65-2.16.65-3.346M75.919 9.037c0-.94.37-1.711 1.555-1.711 1.157 0 1.585.77 1.585 1.711 0 1.027-.428 1.769-1.585 1.769-1.184 0-1.555-.742-1.555-1.769zm7.239-.72v1.286h-1.941a4.84 4.84 0 0 0-.024-1.285h1.965zm-2.717 3.135h2.717v3.318h2.077c.142-.677.269-1.836.269-2.513V5.296h-2.346v1.172h-2.91c-.613-.562-1.523-.904-2.774-.904-2.657 0-3.745 1.54-3.745 3.473 0 1.991 1.088 3.516 3.745 3.516 1.39 0 2.36-.418 2.967-1.101zM78.964 16.563c-.184 0-.24-.042-.24-.24v-2.682h-2.36v3.628c0 .833.409 1.2 1.214 1.2h8.174v-1.906h-6.788zM104.858 6.74c.879 0 1.333.34 1.333.991 0 .694-.454 1.02-1.333 1.02-.92 0-1.388-.326-1.388-1.02 0-.651.468-.991 1.388-.991m-.014 3.638c2.538 0 3.615-1.033 3.615-2.647 0-1.585-1.077-2.59-3.615-2.59-2.579 0-3.642 1.005-3.642 2.59 0 1.614 1.063 2.647 3.642 2.647" fill="#717171"/>
        <path d="M104.77 16.65c-.184 0-.254-.043-.254-.255v-1.699h1.524V12.53h.369c1.148 0 2.395-.297 3.075-.694v1.133h-2.225v1.713h2.225v.949h2.056c.17-.708.269-1.727.269-2.435v-7.9h-2.325v4.842c-1.063.424-2.395.623-3.7.623h-5.725v1.77h3.728v1.316h-1.61v3.624c0 .722.354 1.033 1.063 1.033H112V16.65h-7.23zM68.272 9.317a4.37 4.37 0 0 0 .01-1.175h1.963v1.175h-1.973zm-3.658.99c-1.122 0-1.487-.722-1.487-1.624 0-.82.365-1.569 1.487-1.569 1.094 0 1.515.75 1.515 1.569 0 .902-.421 1.624-1.515 1.624zm5.631-5.011v.99h-2.839c-.6-.579-1.513-.934-2.792-.934-2.61 0-3.675 1.471-3.675 3.33 0 1.917 1.066 3.373 3.675 3.373 1.24 0 2.135-.332 2.736-.883h2.895v1.387h2.127c.127-.637.184-1.387.184-1.982V5.296h-2.31zM68.362 16.963c-1.234 0-1.786-.469-1.786-1.332 0-.807.552-1.317 1.786-1.317 1.261 0 1.8.51 1.8 1.317 0 .863-.539 1.332-1.8 1.332m-.014-4.276c-3.105 0-4.07 1.386-4.07 2.973 0 1.627.965 2.958 4.07 2.958 3.175 0 4.153-1.33 4.153-2.958 0-1.586-.978-2.973-4.153-2.973" fill="#717171"/>
    </g>
</svg>
